HIERARCHY
ROOT root
{
	OFFSET 0.000000 0.000000 0.000000
	CHANNELS 6 Xposition Yposition Zposition Zrotation Yrotation Xrotation
	JOINT lhip
	{
		OFFSET 0.058581 -0.082280 -0.017664
		CHANNELS 3 Zrotation Yrotation Xrotation
		JOINT lknee
		{
			OFFSET 0.043451 -0.386469 0.008037
			CHANNELS 3 Zrotation Yrotation Xrotation
			JOINT lankle
			{
				OFFSET -0.014790 -0.426874 -0.037428
				CHANNELS 3 Zrotation Yrotation Xrotation
				JOINT ltoe
				{
					OFFSET 0.041054 -0.060286 0.122042
					CHANNELS 3 Zrotation Yrotation Xrotation
					End Site
					{
						OFFSET 0.000000 0.000000 0.000000
					}
				}
			}
		}
	}
	JOINT rhip
	{
		OFFSET -0.060310 -0.090513 -0.013543
		CHANNELS 3 Zrotation Yrotation Xrotation
		JOINT rknee
		{
			OFFSET -0.043257 -0.383688 -0.004843
			CHANNELS 3 Zrotation Yrotation Xrotation
			JOINT rankle
			{
				OFFSET 0.019056 -0.420046 -0.034562
				CHANNELS 3 Zrotation Yrotation Xrotation
				JOINT rtoe
				{
					OFFSET -0.034840 -0.062106 0.130323
					CHANNELS 3 Zrotation Yrotation Xrotation
					End Site
					{
						OFFSET 0.000000 0.000000 0.000000
					}
				}
			}
		}
	}
	JOINT lowerback
	{
		OFFSET 0.004439 0.124404 -0.038385
		CHANNELS 3 Zrotation Yrotation Xrotation
		JOINT upperback
		{
			OFFSET 0.004488 0.137956 0.026820
			CHANNELS 3 Zrotation Yrotation Xrotation
			JOINT chest
			{
				OFFSET -0.002265 0.056032 0.002855
				CHANNELS 3 Zrotation Yrotation Xrotation
				JOINT lowerneck
				{
					OFFSET -0.013390 0.211636 -0.033468
					CHANNELS 3 Zrotation Yrotation Xrotation
					JOINT upperneck
					{
						OFFSET 0.010113 0.088937 0.050410
						CHANNELS 3 Zrotation Yrotation Xrotation
						End Site
						{
							OFFSET 0.000000 0.000000 0.000000
						}
					}
				}
				JOINT lclavicle
				{
					OFFSET 0.071702 0.114000 -0.018898
					CHANNELS 3 Zrotation Yrotation Xrotation
					JOINT lshoulder
					{
						OFFSET 0.122921 0.045205 -0.019046
						CHANNELS 3 Zrotation Yrotation Xrotation
						JOINT lelbow
						{
							OFFSET 0.255332 -0.015649 -0.022946
							CHANNELS 3 Zrotation Yrotation Xrotation
							JOINT lwrist
							{
								OFFSET 0.265709 0.012698 -0.007375
								CHANNELS 3 Zrotation Yrotation Xrotation
								End Site
								{
									OFFSET 0.000000 0.000000 0.000000
								}
							}
						}
					}
				}
				JOINT rclavicle
				{
					OFFSET -0.082954 0.112472 -0.023707
					CHANNELS 3 Zrotation Yrotation Xrotation
					JOINT rshoulder
					{
						OFFSET -0.113228 0.046853 -0.008472
						CHANNELS 3 Zrotation Yrotation Xrotation
						JOINT relbow
						{
							OFFSET -0.260127 -0.014369 -0.031269
							CHANNELS 3 Zrotation Yrotation Xrotation
							JOINT rwrist
							{
								OFFSET -0.269108 0.006794 -0.006027
								CHANNELS 3 Zrotation Yrotation Xrotation
								End Site
								{
									OFFSET 0.000000 0.000000 0.000000
								}
							}
						}
					}
				}
			}
		}
	}
}
MOTION
Frames: 16
Frame Time: 0.033333
0.350243 -0.111647 0.865465 154.760821 13.398349 108.330512 2.924715 4.562092 -60.150672 -6.792096 26.552908 29.220961 5.131986 6.043852 -12.501377 0.000000 -0.000000 0.000000 -13.691514 -10.662517 11.505977 -0.698714 2.418970 25.307763 20.602016 3.402146 3.141680 0.000000 -0.000000 0.000000 3.203758 13.561774 29.910354 1.771957 -2.929441 1.413729 2.033537 2.534991 0.673239 2.931566 -2.013145 -9.233866 3.056188 8.994037 -10.964377 -32.535297 1.254823 11.988090 -50.572614 31.657328 6.236528 -11.514502 -52.632447 23.653251 13.380309 -8.802707 -6.900342 24.982141 11.620589 0.076209 44.151015 14.673662 -2.989198 -56.630630 44.993796 -70.985552 -7.884066 9.406592 -17.941757 
0.388212 0.009291 0.851657 158.061522 15.197337 106.975591 0.068378 3.045127 -55.634917 -5.630449 24.502757 32.484407 16.857926 12.425930 -17.143988 0.000000 -0.000000 0.000000 -9.951739 -7.115900 16.694867 2.663456 5.634705 39.546554 17.029580 2.055865 -0.577690 0.000000 -0.000000 0.000000 1.944896 10.156217 28.338840 1.542710 -4.850535 0.632293 1.255693 0.997968 2.703439 3.492112 -0.644488 -11.122533 3.996683 13.663532 -8.709782 -33.929161 0.398669 8.647842 -50.891570 27.288764 6.354839 -7.011220 -51.436264 16.979245 18.860609 -7.122901 -6.183156 24.208672 8.544290 -1.769797 53.239753 7.144626 3.428477 -70.366997 49.976382 -81.596693 -6.641225 10.452796 -26.092150 
0.411737 0.095633 0.841430 160.293259 15.334438 107.944616 0.266570 -0.478832 -54.002870 -3.955795 23.613994 42.054220 19.204963 14.247960 -25.723834 0.000000 -0.000000 0.000000 -8.132144 -5.447099 12.183764 3.453046 1.217286 58.186576 17.161263 -1.569263 -2.215096 0.000000 -0.000000 0.000000 0.206701 8.545184 27.181552 1.728913 -6.373033 -0.229081 0.633707 -0.492236 1.894369 4.828171 1.584475 -11.226292 3.842677 19.383729 -10.913802 -35.586390 -1.910769 7.292278 -48.798857 23.087073 7.299936 -2.731452 -48.699844 10.424995 21.922355 -7.292607 -3.320666 23.504767 6.500078 -1.812548 57.911059 0.269003 7.316044 -80.004840 52.210615 -90.201104 -7.122931 9.184751 -33.755756 
0.441299 0.237206 0.836631 164.254695 12.957520 107.992648 -2.253175 -3.642046 -46.728497 -5.655526 21.439924 50.317089 19.059264 19.396351 -31.511430 0.000000 -0.000000 0.000000 -8.464545 -3.847715 -0.016980 0.106621 -4.811316 89.064592 11.387100 -8.228825 -6.217526 0.000000 -0.000000 0.000000 -2.591784 6.209658 27.560792 1.714778 -8.663256 -0.351659 -0.159325 -3.059272 1.793677 5.417268 3.052138 -11.835237 4.194987 21.161022 -13.109515 -36.420980 -9.478881 5.189504 -44.301832 12.524336 6.720753 4.730417 -40.925453 -0.051445 23.326917 -7.848206 2.335900 22.793685 5.493301 -2.073498 63.217513 -9.360481 10.075282 -93.331977 54.188061 -98.641041 -5.763871 8.263972 -41.408880 
0.454395 0.349658 0.841320 168.135164 12.369180 108.834833 -5.812753 -2.513973 -36.474255 -8.507709 15.838417 47.849358 18.688332 20.339010 -34.291037 0.000000 -0.000000 0.000000 -6.818275 -1.691181 -16.497582 0.084739 -6.729607 107.862216 6.513582 -9.998453 -9.151718 0.000000 -0.000000 0.000000 -3.017257 1.727161 27.536787 2.064422 -7.810571 -2.403565 -0.219031 -4.572042 3.056004 4.997610 4.201867 -12.612433 3.970856 21.652451 -10.769266 -33.765553 -10.790170 1.455845 -46.558010 3.266452 4.391552 14.405525 -42.590241 -11.822700 25.398537 -5.347485 4.303692 20.904847 3.509184 -2.675081 65.876556 -12.374016 11.768957 -100.880553 55.940101 -104.704354 -3.631819 7.775807 -47.736020 
0.459417 0.467019 0.852249 173.295937 11.852920 110.211883 -7.806338 -2.235188 -24.138060 -10.735999 8.717887 40.777768 16.232466 19.812653 -33.393461 0.000000 -0.000000 0.000000 -7.553191 0.840834 -34.569865 -1.936430 -9.245179 114.580527 4.804129 -10.549500 -11.812805 0.000000 -0.000000 0.000000 -2.222797 -4.058359 26.613018 3.439692 -6.274396 -4.463944 -0.121891 -5.820542 4.573422 3.826936 5.209789 -12.296668 2.214421 21.395677 -10.747211 -31.668347 -8.697891 -0.955373 -50.745928 -5.666941 5.625775 26.108683 -52.597594 -25.863419 28.359724 -4.955800 -1.782068 20.075122 0.376248 -3.331270 65.060357 -11.411664 13.729655 -106.466347 56.518622 -108.266270 -2.498938 7.793228 -45.580464 
0.461704 0.594045 0.869000 179.604709 12.682099 111.072165 -6.410512 -1.109738 -9.428859 -10.974335 -0.683466 31.037522 10.606653 16.851798 -26.508889 0.000000 -0.000000 0.000000 -9.680074 2.634462 -48.686234 -4.790864 -13.452131 108.263623 5.688618 -8.808716 -14.059456 0.000000 -0.000000 0.000000 0.863841 -9.984560 24.470186 5.522513 -5.141100 -3.009295 0.304409 -7.327221 4.034311 3.593838 8.369448 -11.649206 -0.920256 20.246841 -9.455004 -28.850134 -8.161399 -1.217205 -53.331321 -8.721464 10.187856 42.680840 -64.992969 -34.244550 23.532143 -6.641705 -4.088273 20.178358 -0.569718 -4.148726 61.747871 -7.998632 14.164174 -108.982199 56.988859 -107.001266 0.107772 8.397562 -40.781740 
0.463262 0.726733 0.887552 -176.978166 14.370211 112.483536 -2.740924 0.314556 2.795626 -8.753190 -6.842133 20.869513 3.520885 12.126307 -10.241891 0.000000 -0.000000 0.000000 -12.293009 4.691717 -59.078761 -4.220147 -18.112808 91.001652 6.769357 -5.502760 -12.543559 0.000000 -0.000000 0.000000 3.664550 -14.397765 20.184849 7.549554 -3.642624 -0.521233 1.188349 -8.620409 2.807145 4.288390 11.500332 -10.066671 -4.499905 19.677502 -7.185414 -26.369691 -6.221962 0.546729 -54.068995 -8.381921 14.213509 82.134432 -75.436946 -65.111727 25.454671 -10.528747 -2.545933 20.408257 -0.343457 -4.189753 58.581537 -1.649035 15.067920 -109.483102 57.816692 -105.179401 -0.530564 8.496941 -34.827261 
0.463446 0.860286 0.898847 -175.812433 15.516164 113.493693 -1.420610 0.855882 12.288778 -3.637564 -8.170563 14.045963 3.075144 13.632212 -3.930624 0.000000 -0.000000 0.000000 -14.657974 6.181617 -63.984843 0.514287 -19.657648 66.005606 9.472335 -3.867265 -10.670880 0.000000 -0.000000 0.000000 5.707617 -17.166174 15.787398 8.883335 -2.691390 1.233838 2.334315 -8.996143 2.252068 4.522275 11.148939 -7.775005 -7.263749 21.079445 -6.829771 -24.322708 -2.522113 2.954720 -54.925405 -7.464200 15.695435 138.052756 -77.433085 -116.940066 26.498621 -12.919813 -2.727741 19.950656 0.307698 -3.711614 58.917944 6.579347 17.077037 -111.129258 56.791881 -104.402324 0.282846 9.274178 -24.620639 
0.460449 0.992106 0.896790 -175.826925 15.068015 112.525374 -3.904162 -0.252587 16.729745 -2.008661 -7.782455 23.598786 1.915924 13.868468 -5.540938 0.000000 -0.000000 0.000000 -15.160550 5.810120 -61.978810 4.175516 -16.874980 40.265479 12.919243 -2.973794 -5.021189 0.000000 -0.000000 0.000000 6.908399 -17.133169 14.623310 9.771373 -3.119528 0.693807 2.911055 -8.980020 2.698718 4.225741 10.519216 -7.967269 -9.727258 21.133598 -6.311422 -22.258219 -0.651331 4.932566 -57.756292 -4.962408 17.058748 161.930464 -78.473342 -141.306987 29.233837 -13.689791 -6.082788 19.829811 1.991218 -4.902923 62.531978 14.571132 21.156540 -115.231863 55.172813 -104.779869 0.350233 8.817491 -11.547946 
0.461818 1.122756 0.886394 -177.605402 14.830084 109.895188 -6.802839 -1.188383 16.607263 -7.417060 -5.140059 43.907170 1.453339 11.731074 -7.995563 0.000000 -0.000000 0.000000 -11.406538 4.590187 -57.725670 5.372620 -16.508376 27.574722 16.868222 0.369012 -0.391792 0.000000 -0.000000 0.000000 7.299204 -13.532796 14.979138 10.961411 -3.738488 1.668209 3.164144 -8.174168 2.155102 3.831098 11.119402 -10.875615 -12.185320 18.088610 -5.060186 -23.036679 -2.120986 6.885826 -58.855321 -0.944251 17.248366 177.619352 -86.855545 -158.330618 28.033448 -13.271967 -4.879817 23.006058 6.289169 -5.339880 63.904854 21.000495 24.492578 -119.697262 55.746279 -103.081718 -1.692842 9.158819 4.800395 
0.464412 1.253684 0.869334 -179.249877 15.395951 106.580704 -4.599719 2.391431 11.925618 -3.469019 4.693458 68.417507 4.153152 14.658512 -9.312370 0.000000 -0.000000 0.000000 -8.026429 6.009074 -52.105717 6.909103 -14.488954 32.283118 2.627064 -1.035741 -3.823909 0.000000 -0.000000 0.000000 8.795841 -11.472987 16.180244 10.344718 -2.009125 2.816519 3.068165 -5.975540 0.932599 1.625922 6.951570 -12.566905 -12.006384 16.852136 -5.022887 -25.948567 -5.899772 7.923525 -59.611669 3.655117 15.424097 -8.335456 -80.248418 26.539532 22.746603 -10.449618 -6.574928 25.050033 13.253180 -2.708559 63.444365 24.614287 23.935121 -118.091770 58.781804 -97.455127 -2.226737 9.356357 13.978554 
0.464765 1.375543 0.860129 -179.951202 15.220184 103.035009 -2.191204 3.017158 2.544467 0.077702 9.115392 93.360898 5.613173 14.904834 -11.687181 0.000000 -0.000000 0.000000 -5.942947 6.926611 -47.910342 5.111559 -12.936726 48.312698 0.087266 -2.547888 -17.379228 0.000000 -0.000000 0.000000 8.698026 -9.375020 20.405434 8.898682 0.287768 1.809863 2.792605 -3.425285 -0.868090 3.140823 4.237687 -13.725752 -10.699373 15.535733 -1.124137 -30.681637 -8.390768 7.863867 -57.830893 5.451903 13.917837 -1.164807 -66.387975 18.602273 19.449727 -8.215910 -3.316663 27.307209 18.759014 -0.160090 59.047139 26.586874 20.996161 -88.065383 65.028786 -67.279940 -3.826840 11.152498 20.991069 
0.459677 1.496057 0.868378 -176.930180 13.679483 101.095125 -0.467876 0.421038 -12.319334 -3.734502 11.774807 108.472008 4.724212 8.744706 -13.996085 0.000000 -0.000000 0.000000 -4.413625 3.924483 -33.624310 6.236215 -9.877454 46.661728 -2.397892 -3.571379 -25.417151 0.000000 -0.000000 0.000000 9.010614 -6.108629 21.681027 7.230690 -0.421986 1.730220 1.995522 -2.400737 -0.776552 4.650027 -0.935329 -14.823551 -7.160860 13.739807 -0.295230 -33.869162 -8.418771 7.776837 -56.287657 5.469556 13.031587 8.185263 -64.624977 10.199772 22.562199 -6.210205 -1.692717 26.889575 21.927347 -0.429003 52.235607 28.935636 16.375576 -36.837732 57.708119 -19.318126 2.390879 7.572362 23.908085 
0.448919 1.619080 0.888466 -174.263338 11.350192 100.241960 1.045380 -3.256188 -27.849622 -5.419174 16.078816 108.616243 4.452459 5.192437 -15.635478 0.000000 -0.000000 0.000000 -4.479442 -0.565866 -19.703574 6.743010 -4.763247 41.683194 1.412268 -1.228927 -23.733918 0.000000 -0.000000 0.000000 7.293264 -0.616922 20.570376 6.053979 -0.511504 0.412516 2.226665 -1.066169 0.508043 6.208659 -6.124653 -14.597522 -4.100943 8.742566 4.060989 -32.272196 -7.220744 5.984993 -57.645489 3.851529 16.717277 15.469858 -68.156977 4.098491 20.375248 -7.206210 -6.258523 23.358002 23.364211 -2.557680 45.951613 28.529458 14.310870 -12.946448 34.816993 -4.546758 18.541747 0.584496 12.218837 
0.431952 1.750009 0.915988 -173.995264 9.058712 98.181992 3.140768 -4.019022 -36.818274 -6.750026 18.658294 94.031268 5.223408 4.689194 -16.437532 0.000000 -0.000000 0.000000 -7.990643 -4.302627 -5.246235 7.158076 -0.701242 34.054175 9.093613 4.824815 -10.695152 0.000000 -0.000000 0.000000 5.243019 5.952169 20.920338 3.907245 0.515771 0.441169 2.409263 1.751499 -0.088479 6.697988 -11.429218 -14.380095 0.551154 0.453622 8.009229 -31.691017 -8.655700 3.748905 -55.974496 1.898220 19.487286 19.991310 -70.402579 1.523416 11.763637 -10.345125 -6.312803 22.070152 23.821764 -1.197004 44.020195 20.589754 12.275386 -9.781054 22.752916 -5.094760 26.942063 -2.602666 7.599635 
